<mxfile host="app.diagrams.net" modified="2024-06-11T09:10:24.204Z" agent="Mozilla/5.0 (Windows NT 10.0; Win64; x64) AppleWebKit/537.36 (KHTML, like Gecko) Chrome/125.0.0.0 Safari/537.36" etag="mD99YhX2bfHO1gXhg9ps" version="24.5.2" type="device">
  <diagram name="Page-1" id="UvGsvI7WDLGOxSDZg6XE">
    <mxGraphModel dx="1147" dy="1718" grid="1" gridSize="10" guides="1" tooltips="1" connect="1" arrows="1" fold="1" page="1" pageScale="1" pageWidth="850" pageHeight="1100" math="0" shadow="0">
      <root>
        <mxCell id="0" />
        <mxCell id="1" parent="0" />
        <mxCell id="ry9LyBkneQpmExAJehDU-2" value="" style="rounded=1;whiteSpace=wrap;html=1;fillColor=#f8cecc;strokeColor=#b85450;" vertex="1" parent="1">
          <mxGeometry x="350" y="-40" width="330" height="480" as="geometry" />
        </mxCell>
        <mxCell id="ry9LyBkneQpmExAJehDU-80" value="" style="edgeStyle=orthogonalEdgeStyle;rounded=0;orthogonalLoop=1;jettySize=auto;html=1;" edge="1" parent="1" source="ry9LyBkneQpmExAJehDU-4" target="ry9LyBkneQpmExAJehDU-77">
          <mxGeometry relative="1" as="geometry" />
        </mxCell>
        <mxCell id="ry9LyBkneQpmExAJehDU-4" value="Start" style="ellipse;whiteSpace=wrap;html=1;" vertex="1" parent="1">
          <mxGeometry x="486.5" y="20" width="93" height="60" as="geometry" />
        </mxCell>
        <mxCell id="ry9LyBkneQpmExAJehDU-7" value="&lt;font style=&quot;font-size: 43px;&quot;&gt;void WifiSend()&lt;/font&gt;" style="text;html=1;align=center;verticalAlign=middle;whiteSpace=wrap;rounded=0;rotation=-90;" vertex="1" parent="1">
          <mxGeometry x="210" y="150" width="360" height="80" as="geometry" />
        </mxCell>
        <mxCell id="ry9LyBkneQpmExAJehDU-84" value="" style="edgeStyle=orthogonalEdgeStyle;rounded=0;orthogonalLoop=1;jettySize=auto;html=1;" edge="1" parent="1" source="ry9LyBkneQpmExAJehDU-70" target="ry9LyBkneQpmExAJehDU-79">
          <mxGeometry relative="1" as="geometry" />
        </mxCell>
        <mxCell id="ry9LyBkneQpmExAJehDU-70" value="Client.print(DataToSend)&lt;div&gt;(Wifi.h Funtion)&lt;span style=&quot;color: rgba(0, 0, 0, 0); font-family: monospace; font-size: 0px; text-align: start; text-wrap: nowrap; background-color: initial;&quot;&gt;Wifi%3CmxGraphModel%3E%3Croot%3E%3CmxCell%20id%3D%220%22%2F%3E%3CmxCell%20id%3D%221%22%20parent%3D%220%22%2F%3E%3CmxCell%20id%3D%222%22%20value%3D%22Start%22%20style%3D%22ellipse%3BwhiteSpace%3Dwrap%3Bhtml%3D1%3B%22%20vertex%3D%221%22%20parent%3D%221%22%3E%3CmxGeometry%20x%3D%22486.5%22%20y%3D%2220%22%20width%3D%2293%22%20height%3D%2260%22%20as%3D%22geometry%22%2F%3E%3C%2FmxCell%3E%3C%2Froot%3E%3C%2FmxGraphel%&lt;/span&gt;&lt;/div&gt;" style="shape=parallelogram;perimeter=parallelogramPerimeter;whiteSpace=wrap;html=1;fixedSize=1;" vertex="1" parent="1">
          <mxGeometry x="443" y="190" width="180" height="50" as="geometry" />
        </mxCell>
        <mxCell id="ry9LyBkneQpmExAJehDU-90" style="edgeStyle=orthogonalEdgeStyle;rounded=0;orthogonalLoop=1;jettySize=auto;html=1;entryX=0.5;entryY=0;entryDx=0;entryDy=0;" edge="1" parent="1" source="ry9LyBkneQpmExAJehDU-77" target="ry9LyBkneQpmExAJehDU-70">
          <mxGeometry relative="1" as="geometry" />
        </mxCell>
        <mxCell id="ry9LyBkneQpmExAJehDU-77" value="Serial.println(DataToSend)" style="rounded=0;whiteSpace=wrap;html=1;" vertex="1" parent="1">
          <mxGeometry x="433" y="100" width="200" height="60" as="geometry" />
        </mxCell>
        <mxCell id="ry9LyBkneQpmExAJehDU-78" value="End" style="ellipse;whiteSpace=wrap;html=1;" vertex="1" parent="1">
          <mxGeometry x="486.5" y="350" width="93" height="60" as="geometry" />
        </mxCell>
        <mxCell id="ry9LyBkneQpmExAJehDU-86" value="" style="edgeStyle=orthogonalEdgeStyle;rounded=0;orthogonalLoop=1;jettySize=auto;html=1;" edge="1" parent="1" source="ry9LyBkneQpmExAJehDU-79" target="ry9LyBkneQpmExAJehDU-78">
          <mxGeometry relative="1" as="geometry" />
        </mxCell>
        <mxCell id="ry9LyBkneQpmExAJehDU-79" value="Delay(10)" style="shape=parallelogram;perimeter=parallelogramPerimeter;whiteSpace=wrap;html=1;fixedSize=1;" vertex="1" parent="1">
          <mxGeometry x="476.5" y="270" width="113" height="60" as="geometry" />
        </mxCell>
      </root>
    </mxGraphModel>
  </diagram>
</mxfile>
